<?xml version="1.0" encoding="UTF-8"?>
<svg version="1.1" xmlns="http://www.w3.org/2000/svg" width="365" height="365">
<path d="M0 0 C120.45 0 240.9 0 365 0 C365 120.45 365 240.9 365 365 C244.55 365 124.1 365 0 365 C0 244.55 0 124.1 0 0 Z " fill="#083363" transform="translate(0,0)"/>
<path d="M0 0 C1.01037827 0.00222061 2.02075653 0.00444122 3.06175232 0.00672913 C4.77341331 0.00684242 4.77341331 0.00684242 6.51965332 0.00695801 C7.76129745 0.01211929 9.00294159 0.01728058 10.2822113 0.02259827 C12.17785072 0.02472069 12.17785072 0.02472069 14.11178589 0.02688599 C17.47705394 0.0315487 20.84225495 0.04053972 24.20750427 0.05158997 C27.63930175 0.06180606 31.07110614 0.06638403 34.50291443 0.07142639 C41.2405633 0.08248071 47.9781803 0.09923742 54.71580505 0.12025452 C59.54864849 15.41163366 64.24354929 30.67826515 68.32249451 46.19081116 C69.89678201 52.15626438 71.56798524 58.06223267 73.46580505 63.93275452 C75.31498854 69.65555438 76.76302836 75.35637105 77.94236755 81.25306702 C78.62657119 84.1879066 78.62657119 84.1879066 80.15843201 86.92738342 C81.6542686 89.99409466 82.57087861 92.77440924 83.4072113 96.07337952 C83.7072406 97.2336969 84.0072699 98.39401428 84.31639099 99.5894928 C84.63382263 100.83714417 84.95125427 102.08479553 85.27830505 103.37025452 C85.97634338 106.06205116 86.68237372 108.75169437 87.3915863 111.44056702 C87.57603302 112.1399942 87.76047974 112.83942139 87.95051575 113.56004333 C90.14715483 121.8295574 92.54581873 130.03882765 94.96580505 138.24525452 C95.27809555 139.3092749 95.27809555 139.3092749 95.59669495 140.39479065 C97.89409075 148.21440781 100.27766762 155.98005913 103.00779724 163.66273499 C103.71580505 166.12025452 103.71580505 166.12025452 103.71580505 170.12025452 C88.53580505 170.12025452 73.35580505 170.12025452 57.71580505 170.12025452 C53.71580505 157.12025452 53.71580505 157.12025452 53.71580505 154.12025452 C26.49080505 154.61525452 26.49080505 154.61525452 -1.28419495 155.12025452 C-2.60419495 160.07025452 -3.92419495 165.02025452 -5.28419495 170.12025452 C-20.46419495 170.12025452 -35.64419495 170.12025452 -51.28419495 170.12025452 C-48.08419495 150.92025452 -48.08419495 150.92025452 -45.28419495 148.12025452 C-45.0048107 146.58364118 -44.7620843 145.04034434 -44.53419495 143.49525452 C-43.63243697 138.3348293 -42.16777169 133.57369212 -40.44874573 128.63294983 C-38.37067277 122.56634142 -36.62272463 116.42366867 -34.90919495 110.24525452 C-34.6145636 109.18371155 -34.31993225 108.12216858 -34.01637268 107.02845764 C-33.10280772 103.72649884 -32.19284835 100.42356808 -31.28419495 97.12025452 C-24.55929975 72.67260779 -24.55929975 72.67260779 -20.5927887 61.16322327 C-18.45554849 54.74816581 -16.74823359 48.19801171 -14.94923401 41.68226624 C-12.82849011 34.01451661 -10.59755879 26.38797904 -8.28370667 18.77650452 C-6.68896636 13.51811269 -5.19317094 8.24432459 -3.8271637 2.92103577 C-3.02909025 0.27418786 -2.82318774 0.14863052 0 0 Z " fill="#FCFDFD" transform="translate(176.28419494628906,85.87974548339844)"/>
<path d="M0 0 C7.57239814 -0.05152404 15.14474968 -0.08607123 22.71728516 -0.10986328 C25.28305754 -0.11980192 27.84881897 -0.13335748 30.41455078 -0.15087891 C46.4055765 -0.2571939 62.10580529 0.1787688 78 2 C74.5510751 16.95785365 70.05409727 31.62299515 65.67266846 46.32672119 C63.87237587 52.37013611 62.07805945 58.4153269 60.28515625 64.4609375 C60.09494526 65.10186089 59.90473427 65.74278427 59.70875931 66.40312958 C56.69272506 76.57188534 53.77383579 86.76258023 51 97 C47.84030029 94.01966945 45.8974627 90.58442026 43.8125 86.8125 C43.46380859 86.19697266 43.11511719 85.58144531 42.75585938 84.94726562 C39.71937133 79.50933712 36.95048434 73.94066724 34.1787262 68.36494446 C31.79673609 63.57794135 29.37736294 58.81220724 26.921875 54.0625 C26.5831134 53.40715271 26.24435181 52.75180542 25.89532471 52.07659912 C25.20204507 50.73641101 24.5085107 49.39635465 23.81472778 48.056427 C17.62536446 36.1022223 11.49951776 24.12348031 5.57910156 12.03320312 C5.13147461 11.12634766 4.68384766 10.21949219 4.22265625 9.28515625 C3.83859619 8.50019775 3.45453613 7.71523926 3.05883789 6.90649414 C2.0281284 4.84489735 2.0281284 4.84489735 0 3 C0 2.01 0 1.02 0 0 Z " fill="#5D5D5D" transform="translate(71,150)"/>
<path d="M0 0 C21.45 0 42.9 0 65 0 C74.17990164 29.83468033 74.17990164 29.83468033 77.85546875 42.6328125 C78.28001787 44.10400783 78.70480053 45.57513579 79.12979126 47.04620361 C80.02409617 50.14313808 80.91712928 53.24043465 81.80899048 56.33807373 C83.95223027 63.7820017 86.10112181 71.22429845 88.25053215 78.66644669 C88.74560561 80.38060295 89.24059671 82.09478301 89.73550606 83.80898666 C93.48736749 96.80230582 97.26916126 109.78664558 101.0703125 122.765625 C101.56131278 124.44313744 102.05228491 126.12065812 102.54322815 127.79818726 C104.65521982 135.01356458 106.76885128 142.22844333 108.88972473 149.44121552 C109.75398311 152.38297542 110.61544924 155.32554779 111.47620773 158.26833344 C111.87446471 159.62753742 112.27395714 160.98638012 112.67479324 162.34482574 C113.22233156 164.20079042 113.7652059 166.05812912 114.30786133 167.91552734 C114.76458977 169.47030289 114.76458977 169.47030289 115.23054504 171.05648804 C116.00647273 174.02476111 116.54364892 176.96756232 117 180 C98.30163594 180.12116376 79.68076495 179.95111274 61 179 C58.76262953 173.59302137 58 171.1035192 58 165 C33.25 164.505 33.25 164.505 8 164 C7.34 167.3 6.68 170.6 6 174 C5.34 175.65 4.68 177.3 4 179 C-14.15 179 -32.3 179 -51 179 C-46.40494719 154.87597272 -46.40494719 154.87597272 -42.91796875 143.44921875 C-42.53596476 142.16936881 -42.15491456 140.88923386 -41.7747345 139.60884094 C-40.78861387 136.2963576 -39.79052138 132.98761648 -38.78924561 129.6796875 C-37.79189021 126.37776233 -36.80537719 123.07260526 -35.81835938 119.76757812 C-34.65663133 115.87886703 -33.49371664 111.99054128 -32.32321167 108.10446167 C-30.51894478 102.10792903 -28.73338668 96.10765442 -27.00634766 90.08837891 C-26.69570877 89.00756546 -26.38506989 87.92675201 -26.0650177 86.81318665 C-25.49636689 84.82685582 -24.93189914 82.83931963 -24.37284851 80.8502655 C-22.8384995 75.49261266 -21.02650804 70.3564568 -18.90452576 65.20317078 C-15.02887168 55.76316564 -12.58331679 45.88030444 -10.125 36 C-7.10139867 23.86826628 -3.59998249 11.99994163 0 0 Z M4 5 C-1.40981249 21.22943746 -6.36394651 37.53525858 -11 54 C-12.01752468 57.60511135 -13.03821911 61.20930234 -14.0625 64.8125 C-14.31330322 65.69510498 -14.56410645 66.57770996 -14.82250977 67.48706055 C-16.45956413 73.21060454 -18.21564915 78.88175141 -20.03540039 84.54980469 C-22.06692659 90.99730771 -23.7708579 97.52864098 -25.5 104.0625 C-28.00599127 113.51863822 -30.79670905 122.75590087 -34 132 C-36.93872176 140.56609079 -36.93872176 140.56609079 -38.5625 149.4375 C-39.03336672 153.27170045 -40.1997366 155.6155048 -42 159 C-43.87627868 164.52459835 -44.33147873 168.98330853 -45 175 C-29.82 175 -14.64 175 1 175 C2.32 170.05 3.64 165.1 5 160 C32.225 159.505 32.225 159.505 60 159 C60.66 162.3 61.32 165.6 62 169 C62.66 170.98 63.32 172.96 64 175 C79.18 175 94.36 175 110 175 C109.25139985 169.36603011 109.25139985 169.36603011 107.89599609 164.05371094 C107.67817474 163.35962631 107.46035339 162.66554169 107.2359314 161.95042419 C106.88324692 160.85347984 106.88324692 160.85347984 106.5234375 159.734375 C106.01546376 158.11829612 105.50765789 156.50216446 105 154.88598633 C104.73445312 154.04725983 104.46890625 153.20853333 104.1953125 152.34439087 C99.83082217 138.54087834 95.67690852 124.7413662 92.23193359 110.67675781 C90.72649183 104.56862116 88.94146257 98.63781409 86.9074707 92.68432617 C85.82548467 89.48377831 84.89434183 86.25768771 84 83 C83.58069766 81.51005851 83.1600094 80.02050668 82.73828125 78.53125 C82.39567261 77.32069946 82.39567261 77.32069946 82.04614258 76.08569336 C79.56430945 67.33857369 76.98780354 58.6274376 74.3125 49.9375 C70.83711111 38.64688239 70.83711111 38.64688239 69.5 32.9375 C67.11579491 23.50002152 63.95137939 14.27576378 61 5 C42.19 5 23.38 5 4 5 Z " fill="#174481" transform="translate(170,81)"/>
<path d="M0 0 C4.90722293 -0.02500545 9.81440752 -0.04300225 14.72167969 -0.05493164 C16.38574877 -0.05991292 18.04981359 -0.06670037 19.71386719 -0.07543945 C46.57433595 -0.21281249 46.57433595 -0.21281249 49.81347656 2.54272461 C50.2050293 3.02362549 50.59658203 3.50452637 51 4 C50.4740625 4.86625 50.4740625 4.86625 49.9375 5.75 C48.74477934 7.92657025 48.74477934 7.92657025 49.625 9.9375 C49.74875 10.618125 49.8725 11.29875 50 12 C48.68678142 13.6825613 47.35386936 15.34997172 46 17 C46.495 18.485 46.495 18.485 47 20 C46.484375 20.4125 45.96875 20.825 45.4375 21.25 C44.963125 21.8275 44.48875 22.405 44 23 C44.2784375 23.9590625 44.2784375 23.9590625 44.5625 24.9375 C44.706875 25.618125 44.85125 26.29875 45 27 C43.0625 29.25 43.0625 29.25 41 31 C41.94729537 33.15811388 41.94729537 33.15811388 44 35 C42.35 36.65 40.7 38.3 39 40 C39.66 41.65 40.32 43.3 41 45 C40.525625 45.4125 40.05125 45.825 39.5625 46.25 C37.87117137 47.85691413 37.87117137 47.85691413 37.5859375 49.875 C36.88309121 52.42398923 35.79486516 53.76773375 34.0625 55.75 C33.53785156 56.36359375 33.01320312 56.9771875 32.47265625 57.609375 C31 59 31 59 29 59 C21.46391875 44.51877943 13.95905725 30.02230844 6.625 15.4375 C6.07239502 14.34518066 5.51979004 13.25286133 4.95043945 12.12744141 C4.18993286 10.60836182 4.18993286 10.60836182 3.4140625 9.05859375 C2.9701416 8.17486084 2.5262207 7.29112793 2.06884766 6.38061523 C1.1101445 4.24532184 0.47380577 2.28520167 0 0 Z " fill="#EAEBEB" transform="translate(72,151)"/>
<path d="M0 0 C1.90224137 2.85336205 2.48909726 4.45085413 3.21875 7.7109375 C3.53392578 9.08378906 3.53392578 9.08378906 3.85546875 10.484375 C4.17451172 11.91523438 4.17451172 11.91523438 4.5 13.375 C4.92343332 15.25863672 5.35040891 17.14148133 5.78125 19.0234375 C5.96751953 19.85794434 6.15378906 20.69245117 6.34570312 21.55224609 C7.03700286 24.13842937 7.99471434 26.5212785 9 29 C9.66145197 31.64302868 10.28558302 34.27882126 10.875 36.9375 C12.42390236 43.76318397 14.22428624 50.44736987 16.265625 57.14453125 C17 60 17 60 17 64 C6.11 64 -4.78 64 -16 64 C-16 58.43754766 -15.56381252 54.62157713 -14 49.5 C-12.22422719 43.42958081 -10.55170753 37.34060372 -8.9921875 31.2109375 C-8.81802307 30.52739197 -8.64385864 29.84384644 -8.4644165 29.1395874 C-7.75977478 26.36939019 -7.05667184 23.59884066 -6.36083984 20.82641602 C-4.58027578 13.73770662 -2.775915 6.77599127 0 0 Z " fill="#174481" transform="translate(202,137)"/>
<path d="M0 0 C7.7738157 -0.05098645 15.54758776 -0.08585332 23.3215332 -0.10986328 C25.96250012 -0.11987979 28.60345606 -0.13349682 31.24438477 -0.15087891 C35.05487793 -0.17531897 38.86522361 -0.18652697 42.67578125 -0.1953125 C44.4280175 -0.21079636 44.4280175 -0.21079636 46.21565247 -0.22659302 C53.36120478 -0.2275565 60.0219758 0.44930354 67 2 C61.26891385 9.73544358 61.26891385 9.73544358 58.25 13.25 C55.46305488 16.65626626 54 18.58434681 54 23 C53.3507041 24.34187818 52.68268138 25.67479497 52 27 C51.64587656 28.32796291 51.31478446 29.66216607 51 31 C50.4740625 32.4540625 50.4740625 32.4540625 49.9375 33.9375 C48.85919536 36.88481028 48.85919536 36.88481028 49.0625 39.625 C48.98360275 42.62309564 47.9555516 43.80000446 46 46 C46.33 46.66 46.66 47.32 47 48 C46.505 48.78375 46.01 49.5675 45.5 50.375 C43.70731902 52.80947533 43.70731902 52.80947533 44.5 55 C45 57 45 57 43.5 59.625 C43.005 60.40875 42.51 61.1925 42 62 C42.33 62.66 42.66 63.32 43 64 C43.66 63.67 44.32 63.34 45 63 C43.97379138 65.2102955 42.94283206 67.07317497 41.4375 69 C39.96806014 71.04443806 39.43835352 72.54522028 39 75 C36.39968567 72.65281361 34.81836606 70.21753565 33.1875 67.125 C32.72730469 66.28195313 32.26710937 65.43890625 31.79296875 64.5703125 C31 62 31 62 31.70703125 59.37109375 C33.41950422 56.2306977 35.68606624 53.71887217 38 51 C39.65815828 48.23640286 40 47.28396216 40 44 C40 39.31908701 40.99645871 38.37898396 44 35 C43.01 34.67 42.02 34.34 41 34 C42.20381448 31.50638429 43.45428722 29.31856917 45 27 C45 25.68 45 24.36 45 23 C45.65035814 21.65863633 46.3162955 20.32467746 47 19 C47 18.01 47 17.02 47 16 C47.515625 15.38125 48.03125 14.7625 48.5625 14.125 C50.31472352 12.06262745 50.31472352 12.06262745 49.5625 9.4375 C49.376875 8.633125 49.19125 7.82875 49 7 C49.66 6.01 50.32 5.02 51 4 C50.34 4 49.68 4 49 4 C49 3.34 49 2.68 49 2 C33.16 1.67 17.32 1.34 1 1 C0.67 1.66 0.34 2.32 0 3 C0 2.01 0 1.02 0 0 Z " fill="#A3A3A3" transform="translate(71,150)"/>
<path d="M0 0 C21.12 0 42.24 0 64 0 C64 0.99 64 1.98 64 3 C70.6 3 77.2 3 84 3 C84 3.66 84 4.32 84 5 C78.62702175 5.10915757 73.33690699 4.98567716 67.98168945 4.51586914 C61.14547293 3.97078655 54.33588546 3.78254664 47.48046875 3.68359375 C46.25588455 3.66281265 45.03130035 3.64203156 43.76960754 3.62062073 C39.90895468 3.55593325 36.0482417 3.4966213 32.1875 3.4375 C29.54882224 3.39423768 26.91015026 3.35062111 24.27148438 3.30664062 C17.84771733 3.20033642 11.42389228 3.09842964 5 3 C5.37711121 3.68276001 5.75422241 4.36552002 6.14276123 5.06896973 C9.5020938 11.18391726 12.73405486 17.34093737 15.828125 23.59375 C16.26203552 24.46535767 16.69594604 25.33696533 17.14300537 26.23498535 C18.96614511 29.897291 20.78450816 33.56196087 22.60302734 37.2265625 C27.83793062 47.76852224 33.13005661 58.26968377 38.65618896 68.66259766 C41.12148525 73.30129666 43.49770836 77.97172243 45.8125 82.6875 C48.82597669 88.77131144 52.23550245 94.35325368 56 100 C55.625 103.1875 55.625 103.1875 55 106 C51.82666735 104.96521761 51.02719223 104.04829858 49.359375 101.0859375 C48.81109148 99.85415417 48.27538125 98.61672442 47.75 97.375 C47.14795048 96.01989074 46.54370268 94.66575646 45.9375 93.3125 C45.62425781 92.60738281 45.31101563 91.90226562 44.98828125 91.17578125 C43.33254342 87.53054025 41.54528576 83.95306953 39.75 80.375 C39.4209668 79.71290527 39.09193359 79.05081055 38.75292969 78.36865234 C37.35451507 75.57825096 35.9212958 72.87414418 34.265625 70.2265625 C33 68 33 68 33 65 C32.34 65 31.68 65 31 65 C30.67 62.69 30.34 60.38 30 58 C29.34 58 28.68 58 28 58 C27.78956055 57.43474609 27.57912109 56.86949219 27.36230469 56.28710938 C24.2294989 48.14767005 20.30226423 40.46778703 16.33447266 32.70996094 C15.4541867 30.98533837 14.57857669 29.25833156 13.703125 27.53125 C12.92437012 26.00854492 12.92437012 26.00854492 12.12988281 24.45507812 C11 22 11 22 11 20 C10.34 20 9.68 20 9 20 C7.48987869 17.23456804 5.99369852 14.46183193 4.5 11.6875 C4.07074219 10.90181641 3.64148438 10.11613281 3.19921875 9.30664062 C2.79316406 8.54931641 2.38710937 7.79199219 1.96875 7.01171875 C1.59169922 6.31522217 1.21464844 5.61872559 0.82617188 4.90112305 C0 3 0 3 0 0 Z " fill="#15355F" transform="translate(66,147)"/>
<path d="M0 0 C2.36895355 3.55343033 3.17223901 7.04498759 4.1640625 11.1328125 C4.36099701 11.9252536 4.55793152 12.7176947 4.76083374 13.53414917 C5.3877384 16.06310594 6.00630617 18.59402347 6.625 21.125 C7.04896534 22.83736688 7.47343853 24.54960811 7.8984375 26.26171875 C11 38.80449997 11 38.80449997 11 40 C4.07 40 -2.86 40 -10 40 C-8.875 29.875 -8.875 29.875 -7.9140625 26.3515625 C-7.7068457 25.5786084 -7.49962891 24.8056543 -7.28613281 24.00927734 C-7.06795898 23.22246582 -6.84978516 22.4356543 -6.625 21.625 C-6.40166992 20.80080566 -6.17833984 19.97661133 -5.94824219 19.12744141 C-5.50563641 17.49633342 -5.06041294 15.86593302 -4.61230469 14.23632812 C-4.07676148 12.28035692 -3.55661492 10.32018335 -3.0390625 8.359375 C-1.12677936 1.12677936 -1.12677936 1.12677936 0 0 Z " fill="#46484B" transform="translate(202,156)"/>
<path d="M0 0 C8.25 0 16.5 0 25 0 C23.27131165 4.32172087 21.68130926 7.03738714 18.9375 10.6875 C16.24079956 14.20307017 16.24079956 14.20307017 14 18 C13.34 18 12.68 18 12 18 C11.34 19.32 10.68 20.64 10 22 C6.910136 19.94009067 6.48999649 19.4237272 5.17578125 16.19140625 C4.86962891 15.44439453 4.56347656 14.69738281 4.24804688 13.92773438 C3.93931641 13.14720703 3.63058594 12.36667969 3.3125 11.5625 C2.99216797 10.78583984 2.67183594 10.00917969 2.34179688 9.20898438 C0 3.41191365 0 3.41191365 0 0 Z " fill="#545555" transform="translate(130,262)"/>
<path d="M0 0 C21.12 0 42.24 0 64 0 C64 0.99 64 1.98 64 3 C70.6 3 77.2 3 84 3 C84 3.66 84 4.32 84 5 C78.62702175 5.10915757 73.33690699 4.98567716 67.98168945 4.51586914 C61.14547293 3.97078655 54.33588546 3.78254664 47.48046875 3.68359375 C46.25588455 3.66281265 45.03130035 3.64203156 43.76960754 3.62062073 C39.90895468 3.55593325 36.0482417 3.4966213 32.1875 3.4375 C29.54882224 3.39423768 26.91015026 3.35062111 24.27148438 3.30664062 C17.84771733 3.20033642 11.42389228 3.09842964 5 3 C5.66708984 4.08667969 5.66708984 4.08667969 6.34765625 5.1953125 C7.19650391 6.64550781 7.19650391 6.64550781 8.0625 8.125 C8.63097656 9.07632813 9.19945313 10.02765625 9.78515625 11.0078125 C11.20704495 14.50995638 10.93669174 16.39239868 10 20 C7.35109525 16.6827562 5.33538658 13.16520923 3.3125 9.4375 C2.68988281 8.30183594 2.06726563 7.16617188 1.42578125 5.99609375 C0 3 0 3 0 0 Z " fill="#093570" transform="translate(66,147)"/>
<path d="M0 0 C7.7738157 -0.05098645 15.54758776 -0.08585332 23.3215332 -0.10986328 C25.96250012 -0.11987979 28.60345606 -0.13349682 31.24438477 -0.15087891 C35.05487793 -0.17531897 38.86522361 -0.18652697 42.67578125 -0.1953125 C44.4280175 -0.21079636 44.4280175 -0.21079636 46.21565247 -0.22659302 C53.36120478 -0.2275565 60.0219758 0.44930354 67 2 C61.26891385 9.73544358 61.26891385 9.73544358 58.25 13.25 C56.39926364 15.51201111 55.24768326 17.40865785 54 20 C53.01 20.495 53.01 20.495 52 21 C51.66223316 19.2508503 51.32996329 17.50063855 51 15.75 C50.814375 14.77546875 50.62875 13.8009375 50.4375 12.796875 C49.97475734 9.83862731 50 6.98795426 50 4 C49.505 3.01 49.505 3.01 49 2 C33.16 1.67 17.32 1.34 1 1 C0.67 1.66 0.34 2.32 0 3 C0 2.01 0 1.02 0 0 Z " fill="#7A889A" transform="translate(71,150)"/>
<path d="M0 0 C0.625 1.875 0.625 1.875 1 4 C-1 6 -1 6 -3.06298828 6.22705078 C-4.30411377 6.21134033 -4.30411377 6.21134033 -5.5703125 6.1953125 C-6.46621094 6.18886719 -7.36210937 6.18242187 -8.28515625 6.17578125 C-9.22230469 6.15902344 -10.15945312 6.14226562 -11.125 6.125 C-12.06988281 6.11597656 -13.01476562 6.10695312 -13.98828125 6.09765625 C-16.32577292 6.07404522 -18.66276123 6.04111516 -21 6 C-21 5.01 -21 4.02 -21 3 C-42.12 3 -63.24 3 -85 3 C-85.33 3.99 -85.66 4.98 -86 6 C-86.33 5.01 -86.66 4.02 -87 3 C-85.21142938 1.21142938 -82.79876866 1.88009421 -80.41790771 1.87557983 C-79.21705536 1.88097275 -79.21705536 1.88097275 -77.99194336 1.88647461 C-77.15299026 1.88632858 -76.31403717 1.88618256 -75.44966125 1.8860321 C-72.66302956 1.8867315 -69.87646384 1.89452515 -67.08984375 1.90234375 C-65.16313209 1.90420783 -63.23641995 1.90563178 -61.30970764 1.90663147 C-56.22812603 1.91045741 -51.1465728 1.92028834 -46.06500244 1.93133545 C-40.88383366 1.94154794 -35.70266031 1.94612874 -30.52148438 1.95117188 C-20.34764375 1.96191054 -10.17382423 1.97898787 0 2 C0 1.34 0 0.68 0 0 Z " fill="#041A36" transform="translate(151,144)"/>
<path d="M0 0 C5.33852794 -0.0494731 10.67692214 -0.08575425 16.015625 -0.10986328 C17.83140386 -0.11991491 19.64716656 -0.13355828 21.46289062 -0.15087891 C24.07425935 -0.17516406 26.68541387 -0.18649148 29.296875 -0.1953125 C30.10743347 -0.20563507 30.91799194 -0.21595764 31.75311279 -0.22659302 C35.97384958 -0.22743142 38.13342373 0.06671186 42 2 C29.46 2 16.92 2 4 2 C5.98 5.63 7.96 9.26 10 13 C9.67 14.98 9.34 16.96 9 19 C6.46446243 15.84009582 4.62801666 12.55508505 2.8125 8.9375 C2.28269531 7.89464844 1.75289063 6.85179687 1.20703125 5.77734375 C0 3 0 3 0 0 Z " fill="#0C3C7C" transform="translate(67,148)"/>
<path d="M0 0 C0.99 0.33 1.98 0.66 3 1 C2.484375 1.9075 1.96875 2.815 1.4375 3.75 C-0.14060347 7.3178861 0.10922068 7.54823014 1 11 C0.03567924 12.68756133 -0.96210419 14.35666496 -2 16 C-1.67 16.66 -1.34 17.32 -1 18 C-0.34 17.67 0.32 17.34 1 17 C-0.02620862 19.2102955 -1.05716794 21.07317497 -2.5625 23 C-4.03193986 25.04443806 -4.56164648 26.54522028 -5 29 C-7.72426311 26.64722731 -8.8141763 24.37503669 -10 21 C-9.34 21 -8.68 21 -8 21 C-7.90203125 20.443125 -7.8040625 19.88625 -7.703125 19.3125 C-6.59358613 13.65002579 -4.76300514 9.04032578 -2 4 C-1.32867543 2.66900581 -0.66076049 1.3362701 0 0 Z " fill="#979899" transform="translate(115,196)"/>
<path d="M0 0 C18.15 0 36.3 0 55 0 C55 0.66 55 1.32 55 2 C53.99188766 2.01213028 53.99188766 2.01213028 52.96340942 2.02450562 C45.988267 2.11035284 39.01341531 2.20984703 32.03857422 2.31738281 C29.43315501 2.35574082 26.8276816 2.39058145 24.22216797 2.421875 C20.48385197 2.46737751 16.74591135 2.52539626 13.0078125 2.5859375 C11.83695099 2.59748871 10.66608948 2.60903992 9.45974731 2.62094116 C7.838293 2.6507457 7.838293 2.6507457 6.18408203 2.68115234 C4.75178757 2.70113785 4.75178757 2.70113785 3.29055786 2.7215271 C0.80397353 2.78495932 0.80397353 2.78495932 -1 5 C-0.67 3.35 -0.34 1.7 0 0 Z " fill="#44699C" transform="translate(175,240)"/>
<path d="M0 0 C1.83626701 2.70039267 1.99597623 4.11065361 1.875 7.4375 C0.91793251 11.33413194 -0.40546345 13.01235185 -3 16 C-3.350625 16.9075 -3.70125 17.815 -4.0625 18.75 C-4.5265625 19.86375 -4.5265625 19.86375 -5 21 C-5.99 21.33 -6.98 21.66 -8 22 C-8 17.54324805 -7.47970667 17.30627555 -5 14 C-5 12.68 -5 11.36 -5 10 C-4.34964186 8.65863633 -3.6837045 7.32467746 -3 6 C-3 5.01 -3 4.02 -3 3 C-1.5 1.3125 -1.5 1.3125 0 0 Z " fill="#ADADAD" transform="translate(121,163)"/>
<path d="M0 0 C4.62 0 9.24 0 14 0 C14 0.99 14 1.98 14 3 C20.6 3 27.2 3 34 3 C34 3.66 34 4.32 34 5 C26.88868736 5.1391722 19.94617463 4.73492545 12.875 4 C11.44027344 3.85691406 11.44027344 3.85691406 9.9765625 3.7109375 C7.65056246 3.4783375 5.32511041 3.24130321 3 3 C3 2.34 3 1.68 3 1 C2.01 0.67 1.02 0.34 0 0 Z " fill="#19304F" transform="translate(116,147)"/>
<path d="M0 0 C0.625 1.8125 0.625 1.8125 1 4 C0.01 5.485 0.01 5.485 -1 7 C-1.70812814 9.32108669 -2.38024152 11.65377147 -3 14 C-6 13 -6 13 -7.5625 10.375 C-8 7 -8 7 -6.85546875 5.046875 C-2.63948171 0 -2.63948171 0 0 0 Z " fill="#AFB0B1" transform="translate(110,203)"/>
<path d="M0 0 C2.97 0.33 5.94 0.66 9 1 C2.84965831 9.44646925 2.84965831 9.44646925 -1 13 C-1.66 12.67 -2.32 12.34 -3 12 C-2.0882645 9.13454556 -1.21837236 6.41375816 0.1875 3.75 C0.455625 3.1725 0.72375 2.595 1 2 C0.67 1.34 0.34 0.68 0 0 Z " fill="#7C7C7C" transform="translate(129,151)"/>
<path d="M0 0 C0.99 0.33 1.98 0.66 3 1 C2.484375 1.9075 1.96875 2.815 1.4375 3.75 C-0.29975836 6.76248729 -0.29975836 6.76248729 0.5625 9.125 C0.706875 9.74375 0.85125 10.3625 1 11 C-1.30178819 13.81329667 -4.0515284 15.89394885 -7 18 C-6.46231779 12.62317787 -4.50688765 8.67321698 -2 4 C-1.32962449 2.66852754 -0.66191328 1.33569945 0 0 Z " fill="#989898" transform="translate(115,196)"/>
<path d="M0 0 C5.61 0 11.22 0 17 0 C18.11450049 3.34350146 17.91669067 4.66657937 17 8 C16.01 9.485 16.01 9.485 15 11 C13 10 13 10 12.25 8.125 C12 6 12 6 14 3 C13.34 3 12.68 3 12 3 C12 2.34 12 1.68 12 1 C8.04 1 4.08 1 0 1 C0 0.67 0 0.34 0 0 Z " fill="#B2B4B8" transform="translate(108,151)"/>
<path d="M0 0 C1.64826111 2.96687001 2.44271087 5.65626525 3 9 C0.03 9 -2.94 9 -6 9 C-4.25618453 5.51236907 -2.47193291 2.96631949 0 0 Z " fill="#031226" transform="translate(210,187)"/>
<path d="M0 0 C0.99 0.33 1.98 0.66 3 1 C1.89824464 3.47894956 0.733707 5.3245446 -1 7.4375 C-2.93700009 9.91928137 -3.98570439 12.04163782 -5 15 C-5.66 14.67 -6.32 14.34 -7 14 C-5.70677932 8.2392897 -3.62011357 4.66804118 0 0 Z " fill="#9D9D9D" transform="translate(122,172)"/>
<path d="M0 0 C0.66 0 1.32 0 2 0 C4.05257931 3.44833324 5.0632763 5.31661591 4.6875 9.375 C4.460625 10.24125 4.23375 11.1075 4 12 C1.35858749 8.87833067 0.03218742 5.95671845 -1 2 C-0.67 1.34 -0.34 0.68 0 0 Z " fill="#1D4984" transform="translate(72,155)"/>
<path d="M0 0 C0 3.93602341 -1.58022978 4.99361881 -4 8 C-4.77833534 10.18214568 -4.77833534 10.18214568 -5 12 C-5.99 11.01 -6.98 10.02 -8 9 C-7.34 8.67 -6.68 8.34 -6 8 C-5.71125 7.401875 -5.4225 6.80375 -5.125 6.1875 C-3.80034915 3.61179002 -2.10584139 1.96545196 0 0 Z " fill="#848586" transform="translate(115,213)"/>
<path d="M0 0 C0.66 0.33 1.32 0.66 2 1 C1.24266726 2.3410477 0.46867264 3.67269781 -0.3125 5 C-0.74175781 5.7425 -1.17101562 6.485 -1.61328125 7.25 C-2.07089844 7.8275 -2.52851562 8.405 -3 9 C-3.99 9 -4.98 9 -6 9 C-4.68775452 5.06326356 -3.08089673 2.77280706 0 0 Z " fill="#BEBFBF" transform="translate(108,203)"/>
<path d="M0 0 C0.6875 1.8125 0.6875 1.8125 1 4 C-0.4375 5.75 -0.4375 5.75 -2 7 C-2.66 6.67 -3.32 6.34 -4 6 C-2.84826645 3.53199953 -1.95216435 1.95216435 0 0 Z " fill="#B8B8B8" transform="translate(116,178)"/>
<path d="M0 0 C0.33 0.99 0.66 1.98 1 3 C-1.31 4.98 -3.62 6.96 -6 9 C-4.25618453 5.51236907 -2.47193291 2.96631949 0 0 Z " fill="#192433" transform="translate(210,187)"/>
</svg>
